Coordinates
version=1
nRows=8
nColumns=63
inDegrees=yes

Units are S.I. units (second, meters, Newtons, ...)
If the header above contains a line with 'inDegrees', this indicates whether rotational values are in degrees (yes) or radians (no).

endheader
time	pelvis_tilt	pelvis_list	pelvis_rotation	pelvis_tx	pelvis_ty	pelvis_tz	hip_flexion_r	hip_adduction_r	hip_rotation_r	knee_angle_r	knee_angle_r_beta	ankle_angle_r	subtalar_angle_r	mtp_angle_r	hip_flexion_l	hip_adduction_l	hip_rotation_l	knee_angle_l	knee_angle_l_beta	ankle_angle_l	subtalar_angle_l	mtp_angle_l	L5_S1_Flex_Ext	L5_S1_Lat_Bending	L5_S1_axial_rotation	L4_L5_Flex_Ext	L4_L5_Lat_Bending	L4_L5_axial_rotation	L3_L4_Flex_Ext	L3_L4_Lat_Bending	L3_L4_axial_rotation	L2_L3_Flex_Ext	L2_L3_Lat_Bending	L2_L3_axial_rotation	L1_L2_Flex_Ext	L1_L2_Lat_Bending	L1_L2_axial_rotation	L1_T12_Flex_Ext	L1_T12_Lat_Bending	L1_T12_axial_rotation	Abs_r3	Abs_r2	Abs_r1	Abs_t1	Abs_t2	neck_flexion	neck_bending	neck_rotation	arm_flex_r	arm_add_r	arm_rot_r	elbow_flex_r	pro_sup_r	wrist_flex_r	wrist_dev_r	arm_flex_l	arm_add_l	arm_rot_l	elbow_flex_l	pro_sup_l	wrist_flex_l	wrist_dev_l
      2.62790698	      3.14695908	      7.25717048	     89.26555222	      0.15886472	      0.99870157	      0.52674967	     -2.94615457	      1.83831901	    -10.22775734	      9.59292251	      0.16742808	     25.19428382	     18.39646770	      0.00000000	     -5.38923556	     -2.87794926	      0.00890573	      1.78794249	      0.03120548	     27.64935147	     -2.65475477	      0.00000000	     -0.50549084	      0.00511220	     -8.24584097	     -0.93874703	      0.00679923	     -8.76120603	     -0.83047090	      0.01242981	     -8.76120603	     -0.57772548	      0.01242981	     -7.21511085	     -0.46939879	      0.01042480	     -6.69974579	     -0.28883746	      0.00791880	     -6.18438073	     -3.61067050	      0.05783026	    -45.86089371	      0.00000000	      0.00000000	     -1.38714481	     -2.45643788	     38.41448085	    119.40414635	     11.45890350	    235.18316325	      0.07883824	      1.17977862	    -69.84593190	    -24.42713148	     43.01369188	     -7.68757031	     25.64506244	    105.34965950	     29.97858303	    -20.65863425	      4.46223437
      2.65116279	      3.12131435	      7.02320318	     89.63355511	      0.15861525	      0.99878621	      0.52790631	     -2.63379764	      1.83813399	    -10.72419325	      9.64576254	      0.16835032	     24.95729310	     18.32912439	      0.00000000	     -4.94060437	     -2.90432292	     -0.03638105	      2.04434161	      0.03568049	     27.22089076	     -2.40986186	      0.00000000	     -0.48364316	     -0.04249810	     -8.26501997	     -0.89817371	     -0.05652248	     -8.78158372	     -0.79457735	     -0.10332989	     -8.78158372	     -0.55275577	     -0.10332989	     -7.23189247	     -0.44911104	     -0.08666213	     -6.71532872	     -0.27635370	     -0.06582956	     -6.19876498	     -3.45461473	     -0.48074704	    -45.96756156	      0.00000000	      0.00000000	     -2.01075594	     -1.47599295	     36.69671716	    117.00212236	      9.86516596	    235.80832866	      0.08536793	      1.21828123	    -69.84152893	    -24.42832995	     44.57480928	     -8.47371783	     26.52609168	    104.23985617	     30.13785272	    -20.23592806	      4.99486110
      2.67441860	      2.82948764	      7.12408518	     90.19303302	      0.15897941	      0.99884300	      0.52884899	     -2.67417924	      1.59148875	    -11.37933079	      9.81159386	      0.17124462	     24.99923681	     18.34816843	      0.00000000	     -4.77194227	     -2.72853119	     -0.00297967	      2.48013423	      0.04328651	     27.06887349	     -1.78604175	      0.00000000	     -0.50145907	     -0.12810398	     -8.16832897	     -0.93125964	     -0.17037829	     -8.67884953	     -0.82384711	     -0.31147201	     -8.67884953	     -0.57311757	     -0.31147201	     -7.14728785	     -0.46565489	     -0.26122963	     -6.63676729	     -0.28653371	     -0.19843306	     -6.12624673	     -3.58187199	     -1.44913781	    -45.42979522	      0.00000000	      0.00000000	     -2.60309008	      0.40777076	     34.48221756	    115.59610207	      7.91743485	    237.15857504	      0.09366134	      1.29277964	    -69.82831043	    -24.39689198	     46.38431732	     -9.41201290	     29.35098694	    102.49314396	     32.85436213	    -19.28233538	      6.10343330
      2.69767442	      2.66946070	      6.94330092	     90.42714032	      0.15919182	      0.99848461	      0.52828644	     -2.57974015	      1.45733720	    -11.69375486	      9.79118698	      0.17088845	     24.97338779	     18.35009976	      0.00000000	     -4.48173659	     -2.67323975	     -2.18702442	      2.80437660	      0.04894561	     27.51314020	      1.54517305	      0.00000000	     -0.46617583	     -0.14855245	     -8.03636428	     -0.86573513	     -0.19757476	     -8.53863705	     -0.76588027	     -0.36119042	     -8.53863705	     -0.53279236	     -0.36119042	     -7.03181874	     -0.43289088	     -0.30292815	     -6.52954598	     -0.26637287	     -0.23010774	     -6.02727321	     -3.32984734	     -1.68045500	    -44.69584721	      0.00000000	      0.00000000	     -2.53602621	      1.72236971	     33.47214316	    115.39722668	      6.37747946	    238.82812488	      0.10169788	      1.41893276	    -69.80963260	    -24.36015641	     46.39814366	     -9.14385218	     28.85717191	    100.48612060	     73.00935721	    -14.29377915	     17.11023945
      2.72093023	      2.70664442	      6.83331486	     90.51785971	      0.15927782	      0.99768586	      0.52721758	     -2.59000575	      1.51128208	    -11.70057691	      9.75908074	      0.17032809	     25.14217137	     18.30444966	      0.00000000	     -4.42602605	     -2.73558987	     -1.94813610	      2.87054458	      0.05010045	     27.67351003	      1.47977519	      0.00000000	     -0.43765790	     -0.13595553	     -7.93179235	     -0.81277448	     -0.18082086	     -8.42752937	     -0.71902816	     -0.33056228	     -8.42752937	     -0.50019921	     -0.33056228	     -6.94031831	     -0.40640912	     -0.27724052	     -6.44458128	     -0.25007772	     -0.21059512	     -5.94884426	     -3.12614661	     -1.53795617	    -44.11424951	      0.00000000	      0.00000000	     -2.39017486	      2.73261231	     32.93163823	    116.23020236	      5.10869820	    241.00180504	      0.10481742	      1.63647166	    -69.79436526	    -24.32479380	     46.06429147	     -9.53854429	     31.10865895	     99.14655298	     74.85323087	    -13.38064540	     19.38872228
      2.74418605	      3.13376960	      6.48263884	     90.36197277	      0.15879199	      0.99636472	      0.52514429	     -2.44197154	      1.92499352	    -11.41040132	      9.60231782	      0.16759206	     25.23038383	     18.27300196	      0.00000000	     -4.34182918	     -3.12450545	     -1.62233139	      2.60775788	      0.04551396	     27.99846091	      1.12003483	      0.00000000	     -0.37659563	     -0.04166476	     -7.85787450	     -0.69937574	     -0.05541413	     -8.34899166	     -0.61870896	     -0.10130369	     -8.34899166	     -0.43041114	     -0.10130369	     -6.87564019	     -0.34970670	     -0.08496277	     -6.38452303	     -0.21518674	     -0.06453871	     -5.89340588	     -2.68998492	     -0.47132007	    -43.70314063	      0.00000000	      0.00000000	     -2.33379850	      3.40987381	     33.57939891	    117.91883321	      4.22960157	    242.38667123	      0.10506391	      1.89907150	    -69.78236337	    -24.30129320	     44.41365943	     -8.98894134	     32.23195670	     97.62230916	     76.82643769	    -12.51323804	     22.01194776
      2.76744186	      3.55146273	      6.00369319	     90.10457964	      0.15775131	      0.99458146	      0.52183200	     -2.28116899	      2.28435028	    -10.94900559	      9.39224173	      0.16392554	     25.43488117	     18.19361093	      0.00000000	     -4.36038030	     -3.36194747	      2.14448767	      1.99161370	      0.03476022	     27.46304950	     -4.05633945	      0.00000000	     -0.29246814	      0.08996038	     -7.78484263	     -0.54314258	      0.11964731	     -8.27139529	     -0.48049591	      0.21872967	     -8.27139529	     -0.33426184	      0.21872967	     -6.81173730	     -0.27158592	      0.18344721	     -6.32518464	     -0.16711630	      0.13934863	     -5.83863197	     -2.08907068	      1.01764982	    -43.29695926	      0.00000000	      0.00000000	     -1.56610046	      3.32936852	     34.85943580	    120.75753092	      3.56106310	    242.83258506	      0.10407994	      1.87480584	    -69.76976902	    -24.24421803	     41.07202623	     -6.56258666	     31.02727300	     95.91080900	     84.18837626	     -8.34907238	     26.33826231
      2.79069767	      4.30860896	      5.14575575	     89.67179458	      0.15651205	      0.99196794	      0.51819143	     -1.71351560	      2.95420045	    -10.38664123	      9.24812902	      0.16141030	     25.59655350	     18.15670831	      0.00000000	     -3.91717816	     -4.02468367	      2.83845363	      1.55055378	      0.02706227	     28.03520625	     -5.09288393	      0.00000000	     -0.19223820	      0.30172752	     -7.55929250	     -0.35700557	      0.40129761	     -8.03174828	     -0.31582815	      0.73362030	     -8.03174828	     -0.21970904	      0.73362030	     -6.61438094	     -0.17851240	      0.61528277	     -6.14192516	     -0.10984491	      0.46737593	     -5.66946938	     -1.37313827	      3.41320209	    -42.04251711	      0.00000000	      0.00000000	     -0.42726931	      3.08680575	     36.47991634	    125.05106172	      2.57959782	    241.80339989	      0.10408262	      1.72251114	    -69.75152899	    -24.15286482	     38.16505886	     -3.17194280	     31.54680519	     93.06142341	     86.36064971	     -7.01758675	     28.69586954
